<svg xmlns="http://www.w3.org/2000/svg" viewBox="0 0 384.45 273.63"><defs><style>.cls-1{fill:#1d71b8;}</style></defs><g id="Layer_2" data-name="Layer 2"><g id="Slider"><path class="cls-1" d="M203.91,273.63,95.5,273.49,0,271.69l200.29.27c-4.86-6.07-8.27-13.89-10.16-23.27-1.8-8.93-2-18.13-2.26-27-.25-10-.51-20.26.95-30.33a180.45,180.45,0,0,1,4.68-20.78c3.3-12.35,6.72-25.12,12.35-36.9l.87-1.81,9.94,28c4,11.27,8.13,22.92,15.93,32.23,1.85,2.2,3.47,3.15,5,2.92,1.27-.2,2.32-1.25,3.37-2.4,7.43-8.14,14.54-16.75,21.15-25.57l1.33,1c-6.63,8.87-13.78,17.51-21.25,25.69-1.21,1.33-2.54,2.65-4.34,2.93-2.12.34-4.24-.81-6.5-3.5-8-9.54-12.37-21.86-16.22-32.74l-8.59-24.21c-5.07,11.13-8.28,23.14-11.39,34.77a179.36,179.36,0,0,0-4.64,20.58c-1.44,9.94-1.18,20.17-.93,30.06.22,8.83.45,18,2.22,26.74,2,9.82,5.66,17.86,10.94,23.89Z"/><path class="cls-1" d="M229.36,221.45l-1.57-.77a59.12,59.12,0,0,1-8.65-5.57c-1.89-1.38-3.85-2.81-5.86-4-3.35-2-9.86-5.07-15.73-2.67l-.63-1.54c6.54-2.68,13.6.6,17.22,2.79,2.08,1.25,4.06,2.7,6,4.1a71,71,0,0,0,6.78,4.56c-.15-.58-.3-1.16-.46-1.73a51.35,51.35,0,0,1-1.68-8.07c-.27-2.76-.21-8,3.15-11.7l1.24,1.12c-2.93,3.26-3,7.93-2.73,10.42a48.26,48.26,0,0,0,1.63,7.8c.32,1.17.64,2.38.92,3.58Z"/><path class="cls-1" d="M203.31,204.34c-1.12-2.58.45-5.45,1.3-7l2.09-3.84a3,3,0,0,1,.94-1.15,3,3,0,0,1,1.56-.42l.47,0a4.5,4.5,0,0,0,1.63-.83c.27-.18.55-.37.83-.53a9.19,9.19,0,0,1,6.25-.85,25.5,25.5,0,0,1,5.7,2l5.76,2.55-.67,1.52-5.77-2.55a24.42,24.42,0,0,0-5.32-1.88A7.55,7.55,0,0,0,213,192c-.25.14-.49.3-.72.46a5.91,5.91,0,0,1-2.3,1.09c-.21,0-.42.05-.63.07a1.78,1.78,0,0,0-.74.13,1.89,1.89,0,0,0-.4.57l-2.1,3.84c-1,1.79-2,3.85-1.23,5.54Z"/><path class="cls-1" d="M259.83,204a31.71,31.71,0,0,1-15.67-3.93l.83-1.45c10,5.69,24,4.78,34.92-2.26,12-7.78,18.23-20.38,21.31-29.58l1.58.53c-3.17,9.45-9.56,22.41-22,30.45A39,39,0,0,1,259.83,204Z"/><path class="cls-1" d="M247.41,264.63l-.22-1.65c17.32-2.33,34.5-13.49,51.07-33.18a106.64,106.64,0,0,0,13.8-20c10.16-19.88,10.61-43.49,11-64.32l1.67,0c-.4,21-.86,44.82-11.2,65.05a108.06,108.06,0,0,1-14,20.29C282.69,250.89,265.16,262.25,247.41,264.63Z"/><path class="cls-1" d="M384.45,271.4l-53,1.56.09-.9c3.16-34.81-1.6-70.18-5.86-101.46a.82.82,0,0,1,.71-.94h0a.83.83,0,0,1,.94.71c4.21,30.83,8.89,65.62,6,100a.83.83,0,0,0,.83.9l50.24.1"/><path class="cls-1" d="M323.92,145.45,322.05,143c-2.53-3.32-5.14-6.75-8.57-9.16-3.71-2.6-8-3.49-11.41-2.38a20,20,0,0,0-5.28,3l-8.42,6-1-1.36,8.42-6a21.91,21.91,0,0,1,5.73-3.24c3.94-1.28,8.76-.31,12.89,2.59a33.55,33.55,0,0,1,6.73,6.68c-2.32-8.08-9-14.63-16.17-21.15l-13.59-12.3,1.12-1.23,13.59,12.29c8.45,7.65,16.15,15.36,17.42,25.64Z"/><path class="cls-1" d="M211.19,130.37l-.63-1.55a215.68,215.68,0,0,0,26.2-12.67c4.8-2.73,9.8-6.23,10.44-11.45l1.66.21c-.74,6-6.41,9.93-11.27,12.69A219.74,219.74,0,0,1,211.19,130.37Z"/><path class="cls-1" d="M265,177.26A290.26,290.26,0,0,1,268,122.64a82.71,82.71,0,0,1-25,18.19l-1,.45-.21-1a106.61,106.61,0,0,1-2.11-19l1.67,0a105,105,0,0,0,1.87,17.67,81.12,81.12,0,0,0,25.35-19.4l1.92-2.19-.47,2.87a288.37,288.37,0,0,0-3.5,57.06Z"/><path class="cls-1" d="M281.53,181.05l-1.62-.39c2.25-9.17,2.87-18.8,3.47-28.12.37-5.69.76-11.59,1.5-17.35.45-3.45,1.05-6.95,1.62-10.32,1.13-6.66,2.29-13.53,2.39-20.35a101.05,101.05,0,0,0-17.95-2.06l-1.27,12.29-1.66-.17,1.43-13.82h.77A103.2,103.2,0,0,1,289.87,103l.7.15v.68c0,7.18-1.25,14.35-2.43,21.3-.57,3.36-1.16,6.83-1.6,10.26-.74,5.7-1.12,11.57-1.49,17.24C284.44,162,283.81,171.74,281.53,181.05Z"/><path class="cls-1" d="M259.27,100.16a20.27,20.27,0,0,1-15.46-6.85,38.54,38.54,0,0,1-5.19-9.07l-3.06-6.69c-.64-1.39-1.29-2.82-1.83-4.29A30.91,30.91,0,0,1,231.82,62v-.38l.3-.25a4.24,4.24,0,0,1,3.6-.78,4.57,4.57,0,0,1,1.58.67,55.28,55.28,0,0,0,.13-9.54A6.79,6.79,0,0,0,237,49.4a6.42,6.42,0,0,0-1.59-1.92c-7.85-7.08-19.4-8.94-28.67-10.43l-.55-.09-.13-.55c-.48-2.06,1.06-3.81,2.26-4.94,4.48-4.25,9.72-7.7,14.79-11,6-4,12.31-8.12,17.16-13.55l.89-1c1.81-2.07,3.67-4.22,6.33-5.23,3.43-1.3,7.15-.32,10.66.81a361,361,0,0,1,56.94,23.7l1.35.7-1.32.76A148.21,148.21,0,0,0,287,47.42a3.81,3.81,0,0,1-1.65,1.08c-1.85.49-3.21-1.17-4.11-2.27a15.65,15.65,0,0,0-16.53-4.84c-.91.3-1.83.7-2.73,1.09a17.82,17.82,0,0,1-5.5,1.72,18,18,0,0,1-6.54-1c-.95-.27-1.92-.54-2.87-.73-2.83-.57-6.19-.07-7.36,2.3L238.22,44c1.55-3.17,5.72-3.9,9.17-3.21,1,.2,2,.49,3,.77A12.16,12.16,0,0,0,261.32,41c.92-.4,1.88-.82,2.87-1.15a17.18,17.18,0,0,1,18.35,5.37c.83,1,1.63,1.92,2.37,1.72a2.6,2.6,0,0,0,.95-.68,149.39,149.39,0,0,1,27.08-20.3A361.7,361.7,0,0,0,257.62,3c-3.24-1-6.65-1.94-9.57-.83-2.27.86-4,2.85-5.66,4.77-.3.35-.6.7-.91,1-5,5.6-11.34,9.78-17.48,13.83-5,3.3-10.19,6.71-14.57,10.86a4.84,4.84,0,0,0-1.82,2.83C217,37,228.46,39,236.5,46.24a7.84,7.84,0,0,1,2,2.46,5.69,5.69,0,0,1,.38,1.12,29.58,29.58,0,0,1,.29,10.45l-.76,5.78-1.21-2.47a2.62,2.62,0,0,0-1.81-1.32,2.68,2.68,0,0,0-1.89.24,29.29,29.29,0,0,0,1.81,10.18c.52,1.41,1.16,2.82,1.79,4.18l3,6.68a37.18,37.18,0,0,0,5,8.69c5.69,6.78,16.71,8.33,24.06,3.38l.93,1.38A19.36,19.36,0,0,1,259.27,100.16Z"/><path class="cls-1" d="M271.59,97l-1-1.36a23.17,23.17,0,0,0,8.48-11.17c.24-.7.46-1.43.67-2.13a21.71,21.71,0,0,1,2-5,22.82,22.82,0,0,1,1.81-2.45c.22-.26.43-.51.63-.77a29.34,29.34,0,0,0,3.46-5.56,10.24,10.24,0,0,0,1.22-4.59c-.06-1.67-1.1-3.82-3.29-3.82a3,3,0,0,0-2.48,1.44l-1.54,2.38.08-3a63.59,63.59,0,0,1,1-9.63l1.64.3a59.83,59.83,0,0,0-.92,7.43,4.65,4.65,0,0,1,4.16-.16,5.67,5.67,0,0,1,3,5,11.79,11.79,0,0,1-1.38,5.36,30.71,30.71,0,0,1-3.65,5.88l-.64.8a19,19,0,0,0-1.68,2.25,20,20,0,0,0-1.83,4.66c-.22.72-.44,1.47-.7,2.2A24.82,24.82,0,0,1,271.59,97Z"/><path class="cls-1" d="M251.42,198.75l-1.11-1.24c1.53-1.37,2.73-2.54,3.17-4.07a9.41,9.41,0,0,0,.2-2.69v-.27a29.55,29.55,0,0,1,.68-6.76,8.25,8.25,0,0,1,1-2.84,6.36,6.36,0,0,1,3.83-2.54,17.19,17.19,0,0,1,4.26-.35v1.66a16.34,16.34,0,0,0-3.85.31,4.68,4.68,0,0,0-2.84,1.83,7.86,7.86,0,0,0-.89,2.68,26.68,26.68,0,0,0-.55,5.77v.49a10.75,10.75,0,0,1-.27,3.17C254.48,196,252.78,197.53,251.42,198.75Z"/><path class="cls-1" d="M259.17,186.62l-.5-1.6a34.91,34.91,0,0,1,19.12-.45l-.42,1.62A33.5,33.5,0,0,0,259.17,186.62Z"/><path class="cls-1" d="M260.05,193.39l-.8-1.47c3.61-2,7.95-1.55,11.44-1.21l6.93.67-.16,1.66-6.93-.67C267.27,192.06,263.21,191.66,260.05,193.39Z"/><path class="cls-1" d="M259.67,200.49l-.55-1.57a21.76,21.76,0,0,1,7-.88,33.85,33.85,0,0,0,4.29-.26l.25,1.65a36.16,36.16,0,0,1-4.51.28A20.52,20.52,0,0,0,259.67,200.49Z"/><path class="cls-1" d="M220.79,87.13,219.17,85a5.09,5.09,0,0,1-.3.5l-.42.62-.65-.34a7.47,7.47,0,0,1-2.42-2,2.52,2.52,0,0,1-.77.51l-.67.29-.64-1.1-1.94,3.33.4-3.86C213.21,69,215.29,55,218,41.34l1.63.31c-2.5,12.89-4.48,26-5.91,39.1l.77,1.33s0-.06,0-.09l0-3.59L216,81.64a5.89,5.89,0,0,0,1.82,2.17,3.12,3.12,0,0,0,.15-.75l.15-2.24,1,1.36c.15-5.34.75-10.7,1.33-15.91.92-8.31,1.87-16.9,1-25.29l1.66-.17c.88,8.57-.08,17.25-1,25.64a169.27,169.27,0,0,0-1.35,18.19Z"/></g></g></svg>