<svg xmlns="http://www.w3.org/2000/svg" xmlns:xlink="http://www.w3.org/1999/xlink" viewBox="0 0 190.77 154.13"><defs><style>.cls-1{fill:url(#linear-gradient);}.cls-2{fill:#fff;}.cls-3{fill:url(#linear-gradient-2);}.cls-4{fill:url(#linear-gradient-3);}.cls-5{fill:url(#linear-gradient-4);}.cls-6{fill:#231f20;}.cls-7{fill:url(#linear-gradient-5);}.cls-8{fill:#672683;}.cls-9{fill:url(#linear-gradient-6);}.cls-10{fill:#2f3f4f;}.cls-11{fill:url(#linear-gradient-7);}.cls-12{fill:#ea5456;}.cls-13{fill:url(#linear-gradient-8);}.cls-14{fill:#c51635;}.cls-15{fill:#f7be6a;}.cls-16{fill:url(#linear-gradient-9);}.cls-17{fill:url(#linear-gradient-10);}.cls-18{fill:url(#linear-gradient-11);}.cls-19{fill:url(#linear-gradient-12);}.cls-20{fill:url(#linear-gradient-13);}.cls-21{fill:url(#linear-gradient-14);}.cls-22{fill:url(#linear-gradient-15);}.cls-23{fill:#f5a639;}.cls-24{fill:url(#linear-gradient-16);}.cls-25{fill:#ffde8e;}.cls-26{fill:url(#linear-gradient-17);}</style><linearGradient id="linear-gradient" x1="160.03" y1="96.77" x2="190.77" y2="96.77" gradientUnits="userSpaceOnUse"><stop offset="0.44" stop-color="#ffde8e"/><stop offset="0.54" stop-color="#fccb86"/><stop offset="0.74" stop-color="#f59b73"/><stop offset="1" stop-color="#ea5456"/></linearGradient><linearGradient id="linear-gradient-2" x1="83.86" y1="64.94" x2="101.66" y2="64.94" gradientUnits="userSpaceOnUse"><stop offset="0.1" stop-color="#ffde8e"/><stop offset="0.24" stop-color="#fed98c"/><stop offset="0.4" stop-color="#fccc87"/><stop offset="0.56" stop-color="#f9b67e"/><stop offset="0.73" stop-color="#f49771"/><stop offset="0.9" stop-color="#ee7061"/><stop offset="1" stop-color="#ea5657"/></linearGradient><linearGradient id="linear-gradient-3" x1="104.77" y1="47.66" x2="104.77" y2="38.47" gradientUnits="userSpaceOnUse"><stop offset="0" stop-color="#ffde8e"/><stop offset="0.18" stop-color="#fccb86"/><stop offset="0.54" stop-color="#f59b73"/><stop offset="1" stop-color="#ea5456"/></linearGradient><linearGradient id="linear-gradient-4" x1="80.95" y1="47.66" x2="80.95" y2="38.47" xlink:href="#linear-gradient-3"/><linearGradient id="linear-gradient-5" x1="86.57" y1="13.58" x2="86.57" y2="-18.84" gradientTransform="matrix(1, 0.02, -0.02, 1, 6.31, 45.31)" xlink:href="#linear-gradient-2"/><linearGradient id="linear-gradient-6" x1="56.57" y1="12.72" x2="128.52" y2="12.72" gradientUnits="userSpaceOnUse"><stop offset="0" stop-color="#94bee6"/><stop offset="1" stop-color="#333a8d"/></linearGradient><linearGradient id="linear-gradient-7" x1="462.77" y1="-898.2" x2="483.02" y2="-898.2" gradientTransform="matrix(1, -0.08, 0.08, 1, -374.53, 1039.78)" xlink:href="#linear-gradient"/><linearGradient id="linear-gradient-8" x1="457.66" y1="-903.49" x2="469.1" y2="-903.49" gradientTransform="matrix(1, -0.08, 0.08, 1, -374.53, 1039.78)" xlink:href="#linear-gradient"/><linearGradient id="linear-gradient-9" x1="470.34" y1="-903.21" x2="483.72" y2="-903.21" gradientTransform="matrix(1, -0.08, 0.08, 1, -374.53, 1039.78)" xlink:href="#linear-gradient"/><linearGradient id="linear-gradient-10" x1="112.09" y1="101.9" x2="164.83" y2="101.9" xlink:href="#linear-gradient-6"/><linearGradient id="linear-gradient-11" x1="24.92" y1="103.01" x2="72.46" y2="103.01" xlink:href="#linear-gradient-6"/><linearGradient id="linear-gradient-12" x1="66.51" y1="105.81" x2="120.66" y2="105.81" xlink:href="#linear-gradient-6"/><linearGradient id="linear-gradient-13" x1="89.25" y1="109.51" x2="98.81" y2="109.51" gradientUnits="userSpaceOnUse"><stop offset="0" stop-color="#fbb932"/><stop offset="1" stop-color="#ea5456"/></linearGradient><linearGradient id="linear-gradient-14" x1="70.74" y1="85.09" x2="95.05" y2="85.09" gradientUnits="userSpaceOnUse"><stop offset="0" stop-color="#fff"/><stop offset="1" stop-color="#a8d1f1"/></linearGradient><linearGradient id="linear-gradient-15" x1="91.39" y1="85.21" x2="115.81" y2="85.21" xlink:href="#linear-gradient-14"/><linearGradient id="linear-gradient-16" x1="90.8" y1="102.83" x2="97.12" y2="102.83" xlink:href="#linear-gradient-13"/><linearGradient id="linear-gradient-17" x1="64.95" y1="38.86" x2="69.72" y2="38.86" gradientUnits="userSpaceOnUse"><stop offset="0.3" stop-color="#fbb932"/><stop offset="0.46" stop-color="#f8a639"/><stop offset="0.8" stop-color="#f0764c"/><stop offset="1" stop-color="#eb5758"/></linearGradient></defs><g id="Layer_2" data-name="Layer 2"><g id="Layer_30" data-name="Layer 30"><path class="cls-1" d="M190.22,91.82,180.7,97.1l-.19-.39c1.88-1.17,7.12-4.56,7.8-5s.29-2.09-.23-2.09-6,3-8.83,4.52l0-.06-6.83-.23a19.07,19.07,0,0,1,2.2-4.23,4.06,4.06,0,0,0-.23-4.69s-4.87,6.72-6.49,8.46-3.18,6.19-3.18,6.19-4.72,3-4.66,3.22l2.86,5.81,4.81-2.14L170,107l11.53-3.88A2.13,2.13,0,0,0,182,103c.68.16,1.72.29,2.13-.31a30.65,30.65,0,0,1,3.59-3.3,1.65,1.65,0,0,0-.31-.73,19.47,19.47,0,0,0,2.92-1.93c.52-.7-.64-1.39-.64-1.39l-5.16,2.53c2.37-1.48,5.26-3.31,5.86-3.81C191.38,93.15,190.22,91.82,190.22,91.82Z"/><rect class="cls-2" x="159" y="97.53" width="5.94" height="14.83" transform="translate(-29.88 83.91) rotate(-26.68)"/><path class="cls-3" d="M101.53,69.17,97.77,57.41a2.82,2.82,0,0,0-2.46-1.94l-1.49-.12v-.16l-.84.07a3.08,3.08,0,0,1-.43,0l-.84-.07v.16l-1.49.12a2.82,2.82,0,0,0-2.46,1.94L84,69.2a2.8,2.8,0,0,0,1.43,3.37,18.53,18.53,0,0,0,7.24,2.12c2.41,0,5.41-1.19,7.4-2.13A2.82,2.82,0,0,0,101.53,69.17Z"/><path class="cls-4" d="M108.22,43.06c0,2.54-1.54,4.6-3.45,4.6s-3.45-2.06-3.45-4.6,1.54-4.59,3.45-4.59S108.22,40.53,108.22,43.06Z"/><path class="cls-5" d="M84.4,43.06c0,2.54-1.54,4.6-3.45,4.6s-3.45-2.06-3.45-4.6S79,38.47,81,38.47,84.4,40.53,84.4,43.06Z"/><path class="cls-6" d="M89.74,41.54a.85.85,0,0,1-.53-.18A4.48,4.48,0,0,0,84.9,41a.91.91,0,1,1-.7-1.68,6.32,6.32,0,0,1,6.11.56.91.91,0,0,1-.57,1.62Z"/><path class="cls-6" d="M95.86,41.65a.88.88,0,0,0,.53-.17,4.52,4.52,0,0,1,4.32-.16.91.91,0,1,0,.75-1.65,6.31,6.31,0,0,0-6.12.34.91.91,0,0,0-.21,1.26A1,1,0,0,0,95.86,41.65Z"/><path class="cls-7" d="M104.12,37.13c-2.73-4.8-5-9.12-10.85-9.12s-8.49,4-11.39,8.73c0,0-3.31,23.66,10.47,23.67C107,60.43,104.12,37.13,104.12,37.13Z"/><path class="cls-2" d="M88.42,52,97,51.9s.43,4.15-3.87,4.18C88.19,56.12,88.42,52,88.42,52Z"/><path class="cls-8" d="M100.77,23.89s-4,11.8-20.87,15c0,0-7.38,9.48.84,16.23s0,1.26,0,1.26-20-12.86-1.9-32.88Z"/><path class="cls-8" d="M93,28.21s24.24,12.82,13.42,28c0,0,13.49-5.76,8.71-19.11S105.33,20,105.33,20Z"/><polygon class="cls-9" points="78.32 25.44 56.57 18.24 90.54 0 128.52 15.06 110.12 24.26 78.32 25.44"/><path class="cls-10" d="M77.51,25.44l31.76-.14-.85-9.42a41.29,41.29,0,0,0-16.86-2.11,46.43,46.43,0,0,0-13.77,3.52Z"/><path class="cls-11" d="M20.33,96.85l-6.83.82s-2.31,5.87-2.83,7.43,1.27,1.83,1.27,1.83l11.89,2.91,5.34,2.24,1.9-4.49"/><rect class="cls-2" x="-7.93" y="90.58" width="50" height="12" transform="translate(-80.87 91.54) rotate(-77.03)"/><path class="cls-12" d="M25,91.36a2,2,0,0,1-2.4,1.5L13.2,90.69a2,2,0,0,1-1.5-2.4h0a2,2,0,0,1,2.4-1.5L23.53,89a2,2,0,0,1,1.5,2.4Z"/><path class="cls-13" d="M10.57,92.27,16,94.55S15,107,12.37,108.18c-1.79.77-4.26-1.29-4.26-1.29L5.48,106l3-12.75Z"/><path class="cls-14" d="M13.51,98.33s-2.32,5.17-7.27,5.34S0,110.05,0,110.05s1.77-2.37,2.62-2.06l-.5,4s2.84-4,6-4.14c4.14-.2,6.39-3.59,8.12-8.59l2-7.08-1.8-.52Z"/><path class="cls-12" d="M18.69,99.09s-.5,5.65,3.74,8.22,2.32,8.61,2.32,8.61-.38-2.94-1.28-3.08L22,116.6s-.53-4.88-3.17-6.53c-3.52-2.2-3.82-6.25-2.89-11.46l1.75-7.13,1.82.42Z"/><path class="cls-15" d="M21.59,90.76a3.35,3.35,0,1,1-2.51-4A3.34,3.34,0,0,1,21.59,90.76Z"/><path class="cls-16" d="M20.27,103c1.41,3.43,5.84,6.12,5.84,6.12l5,1.74.36-6.88a20,20,0,0,0-2.93-2s-1.94-4.34-3.72-6-7.22-7.92-7.22-7.92a4.07,4.07,0,0,0,.16,4.72,19,19,0,0,1,2.57,4S19.38,100.85,20.27,103Z"/><polygon class="cls-2" points="81.73 67.14 83.7 62.01 89.28 64.84 92.61 70.84 92.82 73.16 81.75 68.68 81.73 67.14"/><polygon class="cls-2" points="105.46 67.14 103.5 62.01 97.91 64.84 94.59 70.84 94.38 73.16 105.45 68.68 105.46 67.14"/><path class="cls-17" d="M120.07,74.83l19.2,32.8,12.15-5.8,6-3.32,7.37,13.89L128.6,129s-16.51-26.06-16.51-27S120.07,74.83,120.07,74.83Z"/><path class="cls-18" d="M68.6,76.21s-3,.73-4.11,2.54-12,30.45-12,30.45l-21.26-9.09-6.35,14.68,37.49,15,10-21.82Z"/><path class="cls-19" d="M115.56,124.19l5.1-49.27L104.5,65.66l-10.4,5L82.45,66,66.51,76.69l2,38.37-.84,21.62s1.08,6.31,4,7.21c2.28.71,14.6,1.34,19.79,1.57l0,.49s20.29-.9,23.8-2.06,2.29-2.83,2.29-2.83Z"/><path class="cls-10" d="M120.87,71.89,107,66.5s-6.79,6.19-13.22,5.87C88.34,72.1,80.5,66.5,80.5,66.5L66.68,71.89l-10,5.53S71,100.09,94.05,100.09s36.77-22.67,36.77-22.67Z"/><path class="cls-20" d="M98.81,109.51A4.78,4.78,0,1,1,94,104.73,4.78,4.78,0,0,1,98.81,109.51Z"/><polygon class="cls-21" points="95.05 99.67 91.43 102.62 70.73 69.63 77.45 67.56 95.05 99.67"/><polygon class="cls-22" points="91.39 102.55 96.31 103.01 115.81 69.42 109.06 67.42 91.39 102.55"/><polygon class="cls-23" points="106.28 66.52 112.44 154.13 132.01 153.58 118.96 68.77 106.28 66.52"/><polygon class="cls-23" points="80.58 66.2 74.42 153.81 54.84 153.26 67.89 68.46 80.58 66.2"/><rect class="cls-24" x="90.8" y="102.13" width="6.32" height="1.41"/><path class="cls-10" d="M120.22,135.56c0,.55-.59,1-1.32,1h0c-.73,0-1.32-.44-1.32-1V117.43c0-.54.59-1,1.32-1h0c.73,0,1.32.44,1.32,1Z"/><path class="cls-10" d="M108.88,136.87a.83.83,0,0,1-1.2,0h0a.83.83,0,0,1,0-1.2l11.06-11.07a.86.86,0,0,1,1.21,0h0a.86.86,0,0,1,0,1.21Z"/><path class="cls-10" d="M129.23,136.87a.83.83,0,0,0,1.2,0h0a.83.83,0,0,0,0-1.2L119.37,124.6a.86.86,0,0,0-1.21,0h0a.86.86,0,0,0,0,1.21Z"/><path class="cls-10" d="M121.73,125.17a1,1,0,0,1-1,1H117a1,1,0,0,1-1-1h0a1,1,0,0,1,1-1h3.73a1,1,0,0,1,1,1Z"/><rect class="cls-10" x="127.45" y="114.96" width="2.45" height="6.56" transform="translate(-46.01 122.83) rotate(-44.09)"/><rect class="cls-10" x="122.21" y="108.29" width="4.04" height="10.8" transform="translate(-44.1 118.5) rotate(-44.1)"/><path class="cls-10" d="M123,107.1a3.69,3.69,0,0,1-.08,5.22h0a3.69,3.69,0,0,1-5.22-.08l-4.7-4.86a3.69,3.69,0,0,1,.08-5.22h0a3.69,3.69,0,0,1,5.22.09Z"/><polygon class="cls-10" points="118.63 116.5 122.88 114.29 126.93 118.62 123.68 120.94 119.5 119.36 118.63 116.5"/><path class="cls-10" d="M68.46,135.56c0,.55.59,1,1.32,1h0c.73,0,1.32-.44,1.32-1V117.43c0-.54-.59-1-1.32-1h0c-.73,0-1.32.44-1.32,1Z"/><path class="cls-10" d="M79.8,136.87a.83.83,0,0,0,1.2,0h0a.85.85,0,0,0,0-1.2L69.94,124.6a.86.86,0,0,0-1.21,0h0a.86.86,0,0,0,0,1.21Z"/><path class="cls-10" d="M59.45,136.87a.83.83,0,0,1-1.2,0h0a.83.83,0,0,1,0-1.2L69.31,124.6a.85.85,0,0,1,1.2,0h0a.85.85,0,0,1,0,1.21Z"/><path class="cls-10" d="M67,125.17a1,1,0,0,0,1,1h3.73a1,1,0,0,0,1-1h0a1,1,0,0,0-1-1H67.92a1,1,0,0,0-1,1Z"/><rect class="cls-10" x="56.72" y="117.01" width="6.56" height="2.45" transform="translate(-66.67 79.08) rotate(-45.92)"/><rect class="cls-10" x="59.05" y="111.67" width="10.8" height="4.04" transform="translate(-62.04 80.85) rotate(-45.9)"/><path class="cls-10" d="M65.69,107.1a3.69,3.69,0,0,0,.08,5.22h0a3.69,3.69,0,0,0,5.22-.08l4.7-4.86a3.69,3.69,0,0,0-.08-5.22h0a3.69,3.69,0,0,0-5.22.09Z"/><polygon class="cls-10" points="70.05 116.5 65.8 114.29 61.75 118.62 65 120.94 69.18 119.36 70.05 116.5"/><rect class="cls-25" x="66.92" y="11.84" width="0.84" height="21.95"/><polygon class="cls-26" points="69.72 46.78 64.95 46.78 66.46 30.94 68.22 30.94 69.72 46.78"/></g></g></svg>