<svg xmlns="http://www.w3.org/2000/svg" xmlns:xlink="http://www.w3.org/1999/xlink" viewBox="0 0 596.82 481.99"><defs><style>.cls-1,.cls-18,.cls-19,.cls-20,.cls-21,.cls-22,.cls-23,.cls-24,.cls-25,.cls-26,.cls-27,.cls-28,.cls-29,.cls-30,.cls-31,.cls-32,.cls-33{fill:none;}.cls-2{isolation:isolate;}.cls-3{opacity:0.2;fill:url(#radial-gradient);}.cls-4{fill:#333;}.cls-5{fill:#f1f1f1;}.cls-42,.cls-43,.cls-6{mix-blend-mode:multiply;}.cls-6{fill:url(#linear-gradient);}.cls-7{fill:url(#linear-gradient-2);}.cls-8{fill:#e5e5e5;}.cls-9{fill:url(#linear-gradient-3);}.cls-10{fill:url(#linear-gradient-4);}.cls-11{fill:url(#linear-gradient-5);}.cls-12{fill:url(#linear-gradient-6);}.cls-13{fill:url(#linear-gradient-7);}.cls-14{fill:url(#linear-gradient-8);}.cls-15{fill:url(#linear-gradient-9);}.cls-16{clip-path:url(#clip-path);}.cls-17{fill:url(#radial-gradient-2);}.cls-18,.cls-19,.cls-20,.cls-21,.cls-22,.cls-23,.cls-24,.cls-25,.cls-26,.cls-27,.cls-28,.cls-29,.cls-30,.cls-31,.cls-32,.cls-33{stroke-miterlimit:10;stroke-width:1.52px;}.cls-18{stroke:url(#radial-gradient-3);}.cls-19{stroke:url(#radial-gradient-4);}.cls-20{stroke:url(#radial-gradient-5);}.cls-21{stroke:url(#radial-gradient-6);}.cls-22{stroke:url(#radial-gradient-7);}.cls-23{stroke:url(#radial-gradient-8);}.cls-24{stroke:url(#radial-gradient-9);}.cls-25{stroke:url(#radial-gradient-10);}.cls-26{stroke:url(#radial-gradient-11);}.cls-27{stroke:url(#radial-gradient-12);}.cls-28{stroke:url(#radial-gradient-13);}.cls-29{stroke:url(#radial-gradient-14);}.cls-30{stroke:url(#radial-gradient-15);}.cls-31{stroke:url(#radial-gradient-16);}.cls-32{stroke:url(#radial-gradient-17);}.cls-33{stroke:url(#radial-gradient-18);}.cls-34{fill:url(#linear-gradient-10);}.cls-35{fill:url(#radial-gradient-19);}.cls-36{fill:url(#radial-gradient-20);}.cls-37{fill:url(#radial-gradient-21);}.cls-38{fill:url(#radial-gradient-22);}.cls-39{fill:url(#radial-gradient-23);}.cls-40{fill:url(#radial-gradient-24);}.cls-41{fill:url(#radial-gradient-25);}.cls-42{opacity:0.9;fill:url(#linear-gradient-11);}.cls-43{opacity:0.4;fill:url(#linear-gradient-12);}</style><radialGradient id="radial-gradient" cx="301.3" cy="366.54" r="240.93" gradientTransform="translate(0 305.04) scale(1 0.17)" gradientUnits="userSpaceOnUse"><stop offset="0.3"/><stop offset="1" stop-opacity="0"/></radialGradient><linearGradient id="linear-gradient" x1="-3.4" y1="292.84" x2="594.83" y2="292.84" gradientTransform="matrix(1, 0.07, -0.07, 1, 22.12, -19.09)" gradientUnits="userSpaceOnUse"><stop offset="0.14" stop-color="#f1f1f1"/><stop offset="0.19" stop-color="#d7d7d7"/><stop offset="0.3" stop-color="#939393"/><stop offset="0.45" stop-color="#272727"/><stop offset="0.51"/><stop offset="0.54" stop-color="#080808"/><stop offset="0.59" stop-color="#1f1f1f"/><stop offset="0.65" stop-color="#444"/><stop offset="0.72" stop-color="#787878"/><stop offset="0.8" stop-color="#b9b9b9"/><stop offset="0.86" stop-color="#f1f1f1"/><stop offset="0.88" stop-color="#ededed"/><stop offset="0.9" stop-color="#e1e1e1"/><stop offset="0.92" stop-color="#cecece"/><stop offset="0.93" stop-color="#b2b2b2"/><stop offset="0.95" stop-color="#8e8e8e"/><stop offset="0.97" stop-color="#626262"/><stop offset="0.99" stop-color="#303030"/><stop offset="1"/></linearGradient><linearGradient id="linear-gradient-2" x1="322.3" y1="139.29" x2="229.83" y2="357.35" gradientTransform="translate(220.51 -159.02) rotate(45)" gradientUnits="userSpaceOnUse"><stop offset="0" stop-color="#e5e5e5"/><stop offset="1" stop-color="#b2b2b2"/></linearGradient><linearGradient id="linear-gradient-3" x1="466.23" y1="-518.05" x2="796.01" y2="-518.05" gradientTransform="translate(222.26 999.24) rotate(-45)" xlink:href="#linear-gradient-2"/><linearGradient id="linear-gradient-4" x1="496.26" y1="-514.93" x2="589.25" y2="-514.93" gradientTransform="translate(282.54 836.75) rotate(-45)" gradientUnits="userSpaceOnUse"><stop offset="0" stop-color="#e5e5e5"/><stop offset="0.3" stop-color="#d1d1d1"/><stop offset="0.73" stop-color="#bababa"/><stop offset="1" stop-color="#b2b2b2"/></linearGradient><linearGradient id="linear-gradient-5" x1="1488.64" y1="-734.63" x2="1581.64" y2="-734.63" gradientTransform="translate(1324.39 1430.43) rotate(-105)" xlink:href="#linear-gradient-4"/><linearGradient id="linear-gradient-6" x1="2174.82" y1="14.93" x2="2267.82" y2="14.93" gradientTransform="translate(2359.22 824.87) rotate(-165)" xlink:href="#linear-gradient-4"/><linearGradient id="linear-gradient-7" x1="1868.95" y1="983.71" x2="1961.95" y2="983.71" gradientTransform="translate(2352.21 -374.37) rotate(135)" xlink:href="#linear-gradient-4"/><linearGradient id="linear-gradient-8" x1="877.13" y1="1203.53" x2="970.13" y2="1203.53" gradientTransform="translate(1310.37 -968.04) rotate(75)" xlink:href="#linear-gradient-4"/><linearGradient id="linear-gradient-9" x1="190.56" y1="454.39" x2="283.56" y2="454.39" gradientTransform="translate(275.53 -362.48) rotate(15)" xlink:href="#linear-gradient-4"/><clipPath id="clip-path"><path class="cls-1" d="M332.14,58.93a42.32,42.32,0,1,1-59.85,0A42.33,42.33,0,0,1,332.14,58.93ZM176.63,148.72a42.32,42.32,0,1,0,29.93-51.84A42.33,42.33,0,0,0,176.63,148.72Zm29.93,127.73a42.32,42.32,0,1,0-29.93-51.84A42.31,42.31,0,0,0,206.56,276.45Zm125.58,37.94a42.32,42.32,0,1,0-59.85,0A42.32,42.32,0,0,0,332.14,314.39Zm95.65-89.78a42.32,42.32,0,1,0-29.92,51.84A42.32,42.32,0,0,0,427.79,224.61ZM397.87,96.88a42.32,42.32,0,1,0,29.92,51.83A42.33,42.33,0,0,0,397.87,96.88Z"/></clipPath><radialGradient id="radial-gradient-2" cx="840.27" cy="119.24" r="165.65" gradientTransform="matrix(-1, -0.05, -0.05, 1, 1152.85, 43.68)" gradientUnits="userSpaceOnUse"><stop offset="0" stop-color="#333"/><stop offset="0.41" stop-color="#313131"/><stop offset="0.56" stop-color="#2a2a2a"/><stop offset="0.67" stop-color="#1f1f1f"/><stop offset="0.75" stop-color="#0e0e0e"/><stop offset="0.8"/></radialGradient><radialGradient id="radial-gradient-3" cx="841.79" cy="186.66" r="9.34" gradientTransform="matrix(-1, 0, 0, 1, 1144.34, 0)" gradientUnits="userSpaceOnUse"><stop offset="0" stop-color="#333"/><stop offset="0.26" stop-color="#2e2e2e"/><stop offset="0.57" stop-color="#202020"/><stop offset="0.89" stop-color="#090909"/><stop offset="1"/></radialGradient><radialGradient id="radial-gradient-4" cx="841.79" cy="186.66" r="14.64" xlink:href="#radial-gradient-3"/><radialGradient id="radial-gradient-5" cx="841.79" cy="186.66" r="49.72" xlink:href="#radial-gradient-3"/><radialGradient id="radial-gradient-6" cx="841.79" cy="186.66" r="20.7" xlink:href="#radial-gradient-3"/><radialGradient id="radial-gradient-7" cx="841.79" cy="186.66" r="28.28" xlink:href="#radial-gradient-3"/><radialGradient id="radial-gradient-8" cx="841.79" cy="186.66" r="39.58" xlink:href="#radial-gradient-3"/><radialGradient id="radial-gradient-9" cx="841.79" cy="186.66" r="63.57" gradientTransform="matrix(-0.32, -0.95, -0.95, 0.32, 747.25, 925.38)" xlink:href="#radial-gradient-3"/><radialGradient id="radial-gradient-10" cx="841.79" cy="186.66" r="90.98" xlink:href="#radial-gradient-3"/><radialGradient id="radial-gradient-11" cx="841.79" cy="186.66" r="73.4" xlink:href="#radial-gradient-3"/><radialGradient id="radial-gradient-12" cx="841.79" cy="186.66" r="82.49" xlink:href="#radial-gradient-3"/><radialGradient id="radial-gradient-13" cx="841.79" cy="186.66" r="101.43" xlink:href="#radial-gradient-3"/><radialGradient id="radial-gradient-14" cx="841.79" cy="186.66" r="111.28" xlink:href="#radial-gradient-3"/><radialGradient id="radial-gradient-15" cx="841.79" cy="186.66" r="137.79" xlink:href="#radial-gradient-3"/><radialGradient id="radial-gradient-16" cx="841.79" cy="186.66" r="147.64" xlink:href="#radial-gradient-3"/><radialGradient id="radial-gradient-17" cx="841.79" cy="186.66" r="159.01" gradientTransform="matrix(-0.99, -0.13, -0.13, 0.99, 1161.81, 115.07)" xlink:href="#radial-gradient-3"/><radialGradient id="radial-gradient-18" cx="841.79" cy="186.66" r="125.25" xlink:href="#radial-gradient-3"/><linearGradient id="linear-gradient-10" x1="2076.37" y1="11.21" x2="2048.52" y2="76.86" gradientTransform="translate(2364.66 230.7) rotate(180)" xlink:href="#linear-gradient-2"/><radialGradient id="radial-gradient-19" cx="301.7" cy="164.16" r="4.37" gradientTransform="matrix(1, 0, 0, 1, 0, 0)" xlink:href="#linear-gradient-4"/><radialGradient id="radial-gradient-20" cx="849.48" cy="-693.09" r="4.37" gradientTransform="translate(458.27 1256.68) rotate(-60)" xlink:href="#linear-gradient-4"/><radialGradient id="radial-gradient-21" cx="1865.62" cy="-647.58" r="4.37" gradientTransform="translate(1775.64 1487.87) rotate(-120)" xlink:href="#linear-gradient-4"/><radialGradient id="radial-gradient-22" cx="2334.36" cy="255.65" r="4.37" gradientTransform="translate(2634.75 462.39) rotate(180)" xlink:href="#linear-gradient-4"/><radialGradient id="radial-gradient-23" cx="1787.06" cy="1113.36" r="4.37" gradientTransform="translate(2176.49 -794.29) rotate(120)" xlink:href="#linear-gradient-4"/><radialGradient id="radial-gradient-24" cx="770.39" cy="1067.86" r="4.37" gradientTransform="translate(859.11 -1025.48) rotate(60)" xlink:href="#linear-gradient-4"/><radialGradient id="radial-gradient-25" cx="298.1" cy="182.86" r="13.91" gradientTransform="matrix(1, 0, 0, 1, 0, 0)" xlink:href="#linear-gradient-4"/><linearGradient id="linear-gradient-11" x1="281.18" y1="361.66" x2="596.82" y2="361.66" gradientUnits="userSpaceOnUse"><stop offset="0"/><stop offset="0.12" stop-color="#2b2b2b"/><stop offset="0.36" stop-color="#7f7f7f"/><stop offset="0.55" stop-color="#bdbdbd"/><stop offset="0.7" stop-color="#e3e3e3"/><stop offset="0.77" stop-color="#f1f1f1"/><stop offset="0.86" stop-color="#efefef"/><stop offset="0.89" stop-color="#e8e8e8"/><stop offset="0.91" stop-color="#ddd"/><stop offset="0.93" stop-color="#ccc"/><stop offset="0.94" stop-color="#b6b6b6"/><stop offset="0.96" stop-color="#9a9a9a"/><stop offset="0.97" stop-color="#7a7a7a"/><stop offset="0.98" stop-color="#545454"/><stop offset="0.99" stop-color="#2b2b2b"/><stop offset="1"/></linearGradient><linearGradient id="linear-gradient-12" x1="284.57" y1="391.91" x2="568.59" y2="391.91" gradientTransform="matrix(0.98, 0.2, 0.21, -1.04, -74.19, 738.33)" gradientUnits="userSpaceOnUse"><stop offset="0" stop-color="#f1f1f1"/><stop offset="0.05" stop-color="#d7d7d7"/><stop offset="0.16" stop-color="#939393"/><stop offset="0.33" stop-color="#272727"/><stop offset="0.38"/><stop offset="0.41" stop-color="#080808"/><stop offset="0.45" stop-color="#1f1f1f"/><stop offset="0.51" stop-color="#444"/><stop offset="0.57" stop-color="#787878"/><stop offset="0.63" stop-color="#b9b9b9"/><stop offset="0.69" stop-color="#f1f1f1"/><stop offset="0.8" stop-color="#efefef"/><stop offset="0.85" stop-color="#e8e8e8"/><stop offset="0.88" stop-color="#ddd"/><stop offset="0.9" stop-color="#ccc"/><stop offset="0.92" stop-color="#b6b6b6"/><stop offset="0.94" stop-color="#9a9a9a"/><stop offset="0.96" stop-color="#7a7a7a"/><stop offset="0.97" stop-color="#545454"/><stop offset="0.99" stop-color="#2b2b2b"/><stop offset="1"/></linearGradient></defs><g class="cls-2"><g id="Layer_2" data-name="Layer 2"><g id="Objects"><path class="cls-3" d="M544.1,366.54c0,22.84-108.7,41.35-242.8,41.35S58.51,389.38,58.51,366.54s108.7-41.35,242.79-41.35S544.1,343.71,544.1,366.54Z"/><path class="cls-4" d="M580.33,366.19C399.52,233.54,194.83,391.43,11,331Q5.51,293.6,0,256.62c194.14,71.8,409.86-109.37,596.82,40.94Q588.57,332,580.33,366.19Z"/><path class="cls-5" d="M12.62,270.49q-4-1.23-7.91-2.61l-1.14-7.75c2.65.94,5.3,1.82,8,2.67C11.89,265.36,12.26,267.93,12.62,270.49Z"/><path class="cls-5" d="M21.26,331.78c-2.53-.7-5.05-1.45-7.57-2.23-.37-2.6-.75-5.21-1.13-7.81,2.53.8,5.07,1.55,7.61,2.27Q20.71,327.9,21.26,331.78Z"/><path class="cls-5" d="M25.23,274.11q-4-1-7.95-2.2c-.35-2.56-.71-5.11-1.06-7.67q4,1.18,8,2.25Z"/><path class="cls-5" d="M33.31,334.86q-3.8-.89-7.59-1.87c-.36-2.59-.71-5.17-1.07-7.74q3.83,1,7.65,1.91Q32.81,331,33.31,334.86Z"/><path class="cls-5" d="M37.9,277.11q-4-.84-8-1.82c-.33-2.53-.67-5.06-1-7.6q4,1,8,1.85C37.26,272.06,37.58,274.59,37.9,277.11Z"/><path class="cls-5" d="M45.42,337.4c-2.54-.48-5.09-1-7.63-1.54l-1-7.68c2.56.56,5.11,1.09,7.68,1.58C44.79,332.3,45.11,334.85,45.42,337.4Z"/><path class="cls-5" d="M50.62,279.52q-4-.67-8-1.45c-.31-2.52-.61-5-.92-7.55q4,.8,8.06,1.48Q50.18,275.75,50.62,279.52Z"/><path class="cls-5" d="M57.58,339.42c-2.56-.37-5.11-.78-7.66-1.21-.31-2.55-.61-5.09-.92-7.63q3.84.68,7.7,1.25Q57.15,335.63,57.58,339.42Z"/><path class="cls-5" d="M63.38,281.36c-2.68-.33-5.36-.69-8-1.1-.29-2.5-.57-5-.86-7.5,2.7.41,5.39.79,8.09,1.12Z"/><path class="cls-5" d="M69.79,341c-2.57-.28-5.13-.58-7.69-.92q-.43-3.8-.85-7.58c2.57.34,5.15.66,7.73.94Z"/><path class="cls-5" d="M76.2,282.69q-4-.35-8.08-.78l-.78-7.47c2.7.3,5.41.57,8.11.8Z"/><path class="cls-5" d="M82,342.05q-3.87-.27-7.72-.63l-.78-7.55c2.58.25,5.17.46,7.76.65C81.55,337,81.79,339.54,82,342.05Z"/><path class="cls-5" d="M89.05,283.52q-4-.19-8.1-.47-.36-3.72-.71-7.44,4.07.28,8.14.48C88.6,278.56,88.83,281,89.05,283.52Z"/><path class="cls-5" d="M94.33,342.71c-2.58-.1-5.17-.22-7.74-.37-.24-2.51-.48-5-.71-7.52,2.59.16,5.19.28,7.79.38Z"/><path class="cls-5" d="M101.94,283.89c-2.71,0-5.41-.09-8.12-.18-.22-2.48-.43-4.95-.64-7.43q4.08.15,8.16.19Z"/><path class="cls-5" d="M106.66,343q-3.89,0-7.77-.12-.31-3.75-.64-7.5c2.61.07,5.21.11,7.82.13Q106.37,339.22,106.66,343Z"/><path class="cls-5" d="M114.87,283.84c-2.71.05-5.43.08-8.14.08l-.57-7.41q4.08,0,8.19-.08C114.52,278.9,114.7,281.37,114.87,283.84Z"/><path class="cls-5" d="M119,342.86c-2.6.06-5.19.1-7.79.11l-.57-7.49q3.92,0,7.84-.1C118.68,337.87,118.86,340.36,119,342.86Z"/><path class="cls-5" d="M127.84,283.4q-4.09.19-8.17.32c-.17-2.47-.33-4.94-.5-7.41q4.1-.12,8.21-.32C127.53,278.46,127.69,280.93,127.84,283.4Z"/><path class="cls-5" d="M131.44,342.41c-2.61.13-5.22.23-7.82.32-.16-2.49-.33-5-.49-7.48q3.91-.12,7.85-.32C131.14,337.42,131.29,339.92,131.44,342.41Z"/><path class="cls-5" d="M140.83,282.6q-4.1.31-8.18.54-.22-3.7-.43-7.41,4.11-.24,8.23-.54Q140.65,278.9,140.83,282.6Z"/><path class="cls-5" d="M143.87,341.65q-3.92.28-7.83.51c-.14-2.49-.29-5-.43-7.48,2.63-.15,5.25-.32,7.88-.51C143.62,336.66,143.74,339.16,143.87,341.65Z"/><path class="cls-5" d="M153.86,281.49c-2.74.26-5.47.51-8.21.74l-.36-7.42q4.13-.35,8.25-.75C153.65,276.54,153.75,279,153.86,281.49Z"/><path class="cls-5" d="M156.34,340.61q-3.93.38-7.86.69c-.11-2.5-.23-5-.35-7.49q3.94-.31,7.89-.69C156.13,335.62,156.23,338.12,156.34,340.61Z"/><path class="cls-5" d="M166.9,280.09q-4.11.48-8.21.91-.15-3.72-.29-7.43,4.13-.44,8.26-.93Z"/><path class="cls-5" d="M168.83,339.33l-7.87.84c-.1-2.5-.19-5-.29-7.5l7.92-.84Z"/><path class="cls-5" d="M180,278.44c-2.74.37-5.49.72-8.23,1.06q-.11-3.72-.22-7.45,4.14-.51,8.28-1.08Q179.89,274.7,180,278.44Z"/><path class="cls-5" d="M181.34,337.83c-2.63.33-5.26.66-7.88,1-.07-2.51-.15-5-.22-7.51l7.93-1C181.23,332.81,181.28,335.32,181.34,337.83Z"/><path class="cls-5" d="M193.06,276.57l-8.24,1.2-.15-7.48q4.14-.59,8.29-1.21C193,271.58,193,274.07,193.06,276.57Z"/><path class="cls-5" d="M193.88,336.13q-4,.57-7.9,1.09-.07-3.77-.14-7.53c2.64-.35,5.29-.72,7.93-1.1C193.81,331.11,193.84,333.62,193.88,336.13Z"/><path class="cls-5" d="M206.17,274.52q-4.14.68-8.26,1.31,0-3.75-.08-7.5c2.77-.43,5.53-.87,8.3-1.32C206.14,269.51,206.15,272,206.17,274.52Z"/><path class="cls-5" d="M206.43,334.28c-2.64.41-5.27.8-7.91,1.19,0-2.52-.05-5-.07-7.55l8-1.2Z"/><path class="cls-5" d="M219.28,272.33c-2.75.48-5.51.94-8.26,1.4q0-3.76,0-7.53c2.77-.46,5.54-.94,8.31-1.42Q219.29,268.56,219.28,272.33Z"/><path class="cls-5" d="M219,332.31q-4,.65-7.92,1.26V326c2.65-.41,5.3-.84,8-1.27Q219,328.52,219,332.31Z"/><path class="cls-5" d="M232.41,270l-8.27,1.46.06-7.56,8.31-1.48C232.48,265,232.44,267.5,232.41,270Z"/><path class="cls-5" d="M231.58,330.24l-7.92,1.31.06-7.6,8-1.32Q231.63,326.43,231.58,330.24Z"/><path class="cls-5" d="M245.54,267.66l-8.27,1.5q.06-3.8.13-7.59l8.31-1.53C245.65,262.58,245.6,265.12,245.54,267.66Z"/><path class="cls-5" d="M244.17,328.11l-7.93,1.35c0-2.55.09-5.09.13-7.63l8-1.37Q244.27,324.28,244.17,328.11Z"/><path class="cls-5" d="M258.68,265.24l-8.28,1.53c.07-2.55.13-5.09.2-7.63l8.32-1.54Q258.78,261.41,258.68,265.24Z"/><path class="cls-5" d="M256.77,325.94l-7.93,1.37c.06-2.55.13-5.11.19-7.66l8-1.38Z"/><path class="cls-5" d="M271.81,262.83l-8.27,1.52q.13-3.84.26-7.66l8.32-1.54C272,257.71,271.91,260.27,271.81,262.83Z"/><path class="cls-5" d="M269.37,323.78l-7.93,1.36q.12-3.84.26-7.68l8-1.38Q269.53,319.92,269.37,323.78Z"/><path class="cls-5" d="M284.94,260.45l-8.27,1.49c.12-2.56.23-5.13.34-7.69l8.31-1.52C285.19,255.3,285.07,257.87,284.94,260.45Z"/><path class="cls-5" d="M282,321.64,274,323l.33-7.71,8-1.36C282.23,316.49,282.1,319.07,282,321.64Z"/><path class="cls-5" d="M298.07,258.13l-8.26,1.45c.13-2.58.26-5.15.4-7.73,2.76-.49,5.53-1,8.3-1.47Q298.3,254.27,298.07,258.13Z"/><path class="cls-5" d="M294.58,319.57l-7.93,1.3.39-7.74,8-1.32C294.88,314.4,294.73,317,294.58,319.57Z"/><path class="cls-5" d="M311.19,255.92l-8.26,1.38c.16-2.59.31-5.17.46-7.76,2.77-.48,5.54-.94,8.31-1.4Z"/><path class="cls-5" d="M307.18,317.59l-7.93,1.24c.15-2.59.31-5.18.46-7.77,2.66-.43,5.32-.84,8-1.25Z"/><path class="cls-5" d="M324.3,253.85,316,255.14l.54-7.8c2.76-.44,5.53-.88,8.29-1.3Z"/><path class="cls-5" d="M319.78,315.74l-7.93,1.15q.25-3.9.53-7.79,4-.6,8-1.17Z"/><path class="cls-5" d="M337.39,252c-2.75.38-5.49.77-8.24,1.17q.28-3.91.59-7.83c2.76-.4,5.52-.8,8.28-1.18Z"/><path class="cls-5" d="M332.36,314.05q-4,.51-7.92,1.05.29-3.92.59-7.82,4-.55,8-1.06Z"/><path class="cls-5" d="M350.46,250.28c-2.74.32-5.48.67-8.23,1l.66-7.85q4.14-.56,8.27-1.05Q350.82,246.34,350.46,250.28Z"/><path class="cls-5" d="M344.93,312.54c-2.64.3-5.27.61-7.91.93q.33-3.93.65-7.84,4-.5,8-.94Q345.29,308.62,344.93,312.54Z"/><path class="cls-5" d="M363.52,248.84q-4.11.41-8.22.87l.72-7.87c2.76-.32,5.51-.61,8.26-.89Q363.89,244.9,363.52,248.84Z"/><path class="cls-5" d="M357.49,311.26c-2.64.24-5.27.51-7.91.78l.72-7.86q4-.42,7.95-.79C358,306,357.74,308.64,357.49,311.26Z"/><path class="cls-5" d="M376.54,247.68q-4.1.31-8.2.7.41-4,.79-7.9c2.75-.26,5.49-.49,8.24-.71C377.09,242.41,376.82,245.05,376.54,247.68Z"/><path class="cls-5" d="M370,310.23q-3.94.28-7.9.62.4-3.93.79-7.88c2.64-.22,5.29-.43,7.93-.62C370.58,305,370.3,307.61,370,310.23Z"/><path class="cls-5" d="M389.55,246.84c-2.73.14-5.46.31-8.19.49.29-2.64.57-5.27.85-7.91q4.11-.28,8.22-.5C390.14,241.56,389.84,244.2,389.55,246.84Z"/><path class="cls-5" d="M382.55,309.49c-2.63.12-5.25.27-7.88.43l.84-7.89q4-.24,7.92-.44C383.14,304.23,382.84,306.86,382.55,309.49Z"/><path class="cls-5" d="M402.52,246.36q-4.08.09-8.16.26l.9-7.93q4.11-.16,8.2-.27C403.15,241.07,402.84,243.71,402.52,246.36Z"/><path class="cls-5" d="M395,309.06c-2.62.06-5.24.13-7.86.23l.9-7.9c2.64-.1,5.27-.18,7.91-.23C395.67,303.79,395.36,306.43,395,309.06Z"/><path class="cls-5" d="M415.46,246.26c-2.71,0-5.43,0-8.15,0,.33-2.64.65-5.29,1-7.93q4.1,0,8.18,0C416.13,241,415.79,243.61,415.46,246.26Z"/><path class="cls-5" d="M407.51,309q-3.92,0-7.85,0c.33-2.63.65-5.27,1-7.9q3.94,0,7.89,0C408.18,303.71,407.85,306.35,407.51,309Z"/><path class="cls-5" d="M428.36,246.58c-2.7-.12-5.41-.2-8.12-.26.34-2.64.68-5.29,1-7.93,2.72.05,5.44.14,8.15.25C429.07,241.29,428.71,243.93,428.36,246.58Z"/><path class="cls-5" d="M420,309.28c-2.61-.11-5.22-.18-7.84-.23.34-2.64.68-5.27,1-7.91,2.62.06,5.24.13,7.86.24Z"/><path class="cls-5" d="M441.22,247.36q-4-.33-8.09-.55l1.08-7.93q4.08.23,8.13.55Q441.79,243.39,441.22,247.36Z"/><path class="cls-5" d="M432.36,310q-3.9-.28-7.81-.5c.37-2.63.72-5.26,1.08-7.89q3.93.21,7.85.5Q432.93,306,432.36,310Z"/><path class="cls-5" d="M454,248.62q-4-.48-8.06-.85l1.14-7.93c2.7.26,5.4.54,8.1.87Q454.64,244.67,454,248.62Z"/><path class="cls-5" d="M444.74,311.14q-3.89-.43-7.79-.77l1.14-7.89c2.61.23,5.22.5,7.82.79Z"/><path class="cls-5" d="M466.82,250.42c-2.68-.44-5.36-.83-8-1.19l1.2-7.92q4,.56,8.07,1.21Z"/><path class="cls-5" d="M457.08,312.77q-3.88-.58-7.77-1.08l1.2-7.87c2.6.34,5.2.7,7.8,1.1Z"/><path class="cls-5" d="M479.55,252.77c-2.67-.56-5.34-1.07-8-1.55.42-2.63.83-5.25,1.25-7.88q4,.72,8,1.56C480.4,247.52,480,250.15,479.55,252.77Z"/><path class="cls-5" d="M469.37,314.9q-3.86-.75-7.73-1.4c.41-2.61.83-5.23,1.25-7.84q3.89.66,7.77,1.42Z"/><path class="cls-5" d="M492.22,255.71q-4-1-8-1.92c.43-2.62.87-5.24,1.3-7.86q4,.91,8,1.95Q492.9,251.8,492.22,255.71Z"/><path class="cls-5" d="M481.63,317.57q-3.86-.93-7.71-1.75c.43-2.6.87-5.2,1.3-7.8,2.59.55,5.17,1.13,7.75,1.76C482.52,312.38,482.08,315,481.63,317.57Z"/><path class="cls-5" d="M504.85,259.28c-2.65-.81-5.29-1.59-7.94-2.32l1.35-7.82q4,1.11,8,2.35Q505.54,255.39,504.85,259.28Z"/><path class="cls-5" d="M493.84,320.8q-3.84-1.11-7.68-2.1l1.35-7.77q3.87,1,7.72,2.13C494.77,315.64,494.3,318.22,493.84,320.8Z"/><path class="cls-5" d="M517.41,263.51c-2.63-.95-5.26-1.87-7.9-2.74l1.41-7.77q4,1.32,7.93,2.77Z"/><path class="cls-5" d="M506,324.63q-3.81-1.31-7.65-2.48l1.41-7.73c2.56.8,5.13,1.64,7.68,2.52Z"/><path class="cls-5" d="M529.92,268.44q-3.93-1.67-7.87-3.19c.49-2.57,1-5.14,1.46-7.72q4,1.55,7.9,3.22C530.91,263.32,530.42,265.88,529.92,268.44Z"/><path class="cls-5" d="M518.12,329.09q-3.81-1.51-7.62-2.89c.48-2.55,1-5.11,1.45-7.67,2.56.93,5.11,1.91,7.66,2.92C519.11,324,518.61,326.54,518.12,329.09Z"/><path class="cls-5" d="M542.36,274.08q-3.9-1.89-7.83-3.64c.51-2.55,1-5.11,1.51-7.66q3.94,1.77,7.86,3.69C543.39,269,542.87,271.55,542.36,274.08Z"/><path class="cls-5" d="M530.18,334.2q-3.79-1.71-7.59-3.3.75-3.79,1.51-7.61,3.81,1.6,7.61,3.34Z"/><path class="cls-5" d="M554.74,280.49c-2.59-1.43-5.19-2.8-7.79-4.13l1.56-7.58c2.61,1.34,5.22,2.72,7.82,4.17Z"/><path class="cls-5" d="M542.18,340q-3.76-1.94-7.55-3.74c.52-2.51,1-5,1.55-7.54q3.8,1.83,7.58,3.79C543.24,335,542.71,337.5,542.18,340Z"/><path class="cls-5" d="M567.05,287.68q-3.87-2.4-7.74-4.62c.53-2.51,1.07-5,1.6-7.51q3.9,2.25,7.77,4.68C568.14,282.71,567.59,285.19,567.05,287.68Z"/><path class="cls-5" d="M554.12,346.52q-3.75-2.17-7.51-4.19c.53-2.49,1.07-5,1.6-7.47,2.52,1.37,5,2.78,7.54,4.25Q554.94,342.81,554.12,346.52Z"/><path class="cls-5" d="M579.29,295.69q-3.84-2.65-7.7-5.14l1.65-7.42q3.87,2.52,7.73,5.21Z"/><path class="cls-5" d="M566,353.78q-3.74-2.41-7.48-4.66l1.65-7.38q3.75,2.29,7.5,4.72C567.12,348.9,566.57,351.34,566,353.78Z"/><path class="cls-5" d="M591.45,304.55q-3.81-2.93-7.65-5.68c.57-2.44,1.13-4.87,1.7-7.31q3.84,2.79,7.67,5.75Q592.32,300.94,591.45,304.55Z"/><path class="cls-5" d="M577.83,361.81q-3.72-2.65-7.44-5.15.86-3.63,1.69-7.28c2.5,1.69,5,3.43,7.47,5.22Q578.68,358.22,577.83,361.81Z"/><path class="cls-5" d="M65.14,327.05a1.5,1.5,0,0,1-1.79,1.7,289.9,289.9,0,0,1-49.43-10.57,3.57,3.57,0,0,1-2.26-2.63q-3-20.82-6-41.52c-.16-1.11.62-1.69,1.74-1.31a282.07,282.07,0,0,0,51.09,11.94,2.73,2.73,0,0,1,2.29,2.22Q62.94,306.89,65.14,327.05Z"/><path class="cls-5" d="M129,329.08a2,2,0,0,1-1.91,2,400.52,400.52,0,0,1-50.36-.93,2.52,2.52,0,0,1-2.21-2.12Q72.47,308,70.4,288a1.58,1.58,0,0,1,1.87-1.72,384.09,384.09,0,0,0,52,1.24,2.08,2.08,0,0,1,2.22,1.83Q127.76,309.16,129,329.08Z"/><path class="cls-5" d="M193.69,322.62a2.34,2.34,0,0,1-2,2.23c-17.06,2.41-34.07,4.36-51,5.5a2,2,0,0,1-2.14-1.79q-1.09-19.94-2.19-39.74a2,2,0,0,1,2-2.05c17.49-1.2,35-3.29,52.66-5.88a1.74,1.74,0,0,1,2.14,1.62Q193.43,302.52,193.69,322.62Z"/><path class="cls-5" d="M258.85,311.9a2.62,2.62,0,0,1-2.13,2.34c-17.13,3-34.25,6-51.33,8.59a1.69,1.69,0,0,1-2.07-1.63q-.13-20.15-.27-40.21a2.47,2.47,0,0,1,2.11-2.28c17.63-2.83,35.29-6.06,53-9.29a1.6,1.6,0,0,1,2.06,1.58Q259.52,291.43,258.85,311.9Z"/><path class="cls-5" d="M324.09,301.27a2.66,2.66,0,0,1-2.21,2.31c-17.11,2.43-34.25,5.3-51.38,8.26a1.58,1.58,0,0,1-2-1.62q.81-20.54,1.6-41a2.71,2.71,0,0,1,2.21-2.37c17.66-3.22,35.32-6.34,52.94-9a1.6,1.6,0,0,1,2,1.71Q325.65,280.41,324.09,301.27Z"/><path class="cls-5" d="M389,295.12a2.48,2.48,0,0,1-2.28,2.12c-17,.71-34,2.33-51.12,4.49a1.6,1.6,0,0,1-1.9-1.76q1.69-20.91,3.4-41.83a2.69,2.69,0,0,1,2.28-2.3c17.59-2.36,35.14-4.12,52.6-4.9a1.71,1.71,0,0,1,1.86,1.95Q391.46,274,389,295.12Z"/><path class="cls-5" d="M453.29,297.83a2.1,2.1,0,0,1-2.32,1.76,364.87,364.87,0,0,0-50.58-2.73,1.73,1.73,0,0,1-1.79-2q2.53-21.11,5.08-42.26a2.46,2.46,0,0,1,2.34-2.08A355.86,355.86,0,0,1,458,253.43a2,2,0,0,1,1.76,2.32Q456.5,276.83,453.29,297.83Z"/><path class="cls-5" d="M516.49,313.71a1.68,1.68,0,0,1-2.35,1.23,278.65,278.65,0,0,0-49.73-13.33,2.08,2.08,0,0,1-1.69-2.37q3.33-20.94,6.65-42a2,2,0,0,1,2.38-1.66,272.89,272.89,0,0,1,51,14.34,2.63,2.63,0,0,1,1.64,2.79Q520.42,293.27,516.49,313.71Z"/><path class="cls-5" d="M578.26,347c-.24,1-1.3,1.25-2.36.51a278.87,278.87,0,0,0-48.58-27.24,2.69,2.69,0,0,1-1.59-2.81q4-20.32,8.06-40.73a1.6,1.6,0,0,1,2.41-1.06,280,280,0,0,1,49.66,29.29,3.64,3.64,0,0,1,1.53,3.33Q582.83,327.65,578.26,347Z"/><path class="cls-6" d="M0,256.62q5.51,37,11,74.34c183.85,60.47,388.54-97.42,569.35,35.23q8.24-34.21,16.49-68.63C409.86,147.25,194.14,328.42,0,256.62Z"/><circle class="cls-7" cx="302.21" cy="186.66" r="186.66" transform="translate(-43.47 268.37) rotate(-45)"/><path class="cls-8" d="M251.48,117.5a198.36,198.36,0,0,1,197.86,184,185.85,185.85,0,0,0,39.54-114.88C488.88,83.57,405.3,0,302.21,0c-97.73,0-177.91,75.12-186,170.77A199.2,199.2,0,0,1,251.48,117.5Z"/><path class="cls-9" d="M302.21,351.55A164.89,164.89,0,0,1,185.62,70.07,164.89,164.89,0,0,1,418.81,303.26,163.83,163.83,0,0,1,302.21,351.55Zm0-325.47A160.58,160.58,0,0,0,188.67,300.21,160.58,160.58,0,0,0,415.76,73.12,159.53,159.53,0,0,0,302.21,26.08Z"/><path class="cls-10" d="M335.09,56a46.5,46.5,0,1,1-65.75,0A46.5,46.5,0,0,1,335.09,56Z"/><path class="cls-11" d="M205.48,92.85a46.5,46.5,0,1,1-32.88,57A46.49,46.49,0,0,1,205.48,92.85Z"/><path class="cls-12" d="M172.6,223.53a46.5,46.5,0,1,1,32.88,57A46.51,46.51,0,0,1,172.6,223.53Z"/><path class="cls-13" d="M269.34,317.35a46.5,46.5,0,1,1,65.75,0A46.5,46.5,0,0,1,269.34,317.35Z"/><path class="cls-14" d="M399,280.48a46.5,46.5,0,1,1,32.88-57A46.51,46.51,0,0,1,399,280.48Z"/><path class="cls-15" d="M431.83,149.79A46.5,46.5,0,1,1,399,92.85,46.5,46.5,0,0,1,431.83,149.79Z"/><g class="cls-16"><circle class="cls-17" cx="302.55" cy="186.66" r="165.66" transform="translate(-9.23 15.86) rotate(-2.96)"/><path class="cls-18" d="M294,186.66a8.59,8.59,0,1,0,8.58-8.58A8.59,8.59,0,0,0,294,186.66Z"/><path class="cls-19" d="M288.67,186.66a13.89,13.89,0,1,0,13.88-13.88A13.88,13.88,0,0,0,288.67,186.66Z"/><path class="cls-20" d="M253.59,186.66a49,49,0,1,0,49-49A49,49,0,0,0,253.59,186.66Z"/><path class="cls-21" d="M282.61,186.66a19.95,19.95,0,1,0,19.94-19.94A19.95,19.95,0,0,0,282.61,186.66Z"/><path class="cls-22" d="M275,186.66a27.53,27.53,0,1,0,27.52-27.52A27.53,27.53,0,0,0,275,186.66Z"/><path class="cls-23" d="M263.73,186.66a38.82,38.82,0,1,0,38.82-38.82A38.82,38.82,0,0,0,263.73,186.66Z"/><circle class="cls-24" cx="302.55" cy="186.66" r="62.81" transform="translate(29.36 414.14) rotate(-71.46)"/><path class="cls-25" d="M212.33,186.66a90.23,90.23,0,1,0,90.22-90.22A90.23,90.23,0,0,0,212.33,186.66Z"/><path class="cls-26" d="M229.91,186.66A72.65,72.65,0,1,0,302.55,114,72.65,72.65,0,0,0,229.91,186.66Z"/><path class="cls-27" d="M220.82,186.66a81.74,81.74,0,1,0,81.73-81.73A81.74,81.74,0,0,0,220.82,186.66Z"/><path class="cls-28" d="M201.88,186.66A100.68,100.68,0,1,0,302.55,86,100.68,100.68,0,0,0,201.88,186.66Z"/><path class="cls-29" d="M192,186.66A110.53,110.53,0,1,0,302.55,76.14,110.53,110.53,0,0,0,192,186.66Z"/><path class="cls-30" d="M165.52,186.66a137,137,0,1,0,137-137A137,137,0,0,0,165.52,186.66Z"/><path class="cls-31" d="M155.67,186.66A146.89,146.89,0,1,0,302.55,39.78,146.88,146.88,0,0,0,155.67,186.66Z"/><circle class="cls-32" cx="302.55" cy="186.66" r="158.25" transform="translate(-22.38 42.45) rotate(-7.74)"/><path class="cls-33" d="M178.06,186.66A124.49,124.49,0,1,0,302.55,62.17,124.49,124.49,0,0,0,178.06,186.66Z"/></g><path class="cls-34" d="M302.21,151a35.66,35.66,0,1,1-35.65,35.65A35.7,35.7,0,0,1,302.21,151Zm0,67a31.35,31.35,0,1,0-31.35-31.35A31.38,31.38,0,0,0,302.21,218Z"/><path class="cls-35" d="M305.87,165.36a3.32,3.32,0,1,1-3.32-3.32A3.31,3.31,0,0,1,305.87,165.36Z"/><path class="cls-36" d="M285.6,172.84a3.32,3.32,0,1,1-4.54,1.22A3.32,3.32,0,0,1,285.6,172.84Z"/><path class="cls-37" d="M281.94,194.14a3.32,3.32,0,1,1-1.22,4.54A3.32,3.32,0,0,1,281.94,194.14Z"/><path class="cls-38" d="M298.55,208a3.32,3.32,0,1,1,3.32,3.32A3.32,3.32,0,0,1,298.55,208Z"/><path class="cls-39" d="M318.83,200.49a3.32,3.32,0,1,1,4.54-1.22A3.33,3.33,0,0,1,318.83,200.49Z"/><path class="cls-40" d="M322.49,179.19a3.32,3.32,0,1,1,1.22-4.54A3.33,3.33,0,0,1,322.49,179.19Z"/><path class="cls-41" d="M312.8,186.66a10.59,10.59,0,1,1-10.59-10.58A10.59,10.59,0,0,1,312.8,186.66Z"/><path class="cls-4" d="M293.41,348.45q-6.09,38.55-12.23,77C390.72,362.89,484.5,443.5,594,381q1.4-41.56,2.78-83.13C490.62,361.7,399.85,282.43,293.41,348.45Z"/><path class="cls-5" d="M293,350.9q-.64,4.05-1.28,8.09c2.33-1.38,4.65-2.69,7-3.95l1.26-8.11C297.67,348.19,295.35,349.52,293,350.9Z"/><path class="cls-5" d="M282.86,414.91c-.43,2.69-.86,5.37-1.29,8.07,2.39-1.32,4.77-2.57,7.14-3.77l1.26-8.09C287.61,412.32,285.24,413.59,282.86,414.91Z"/><path class="cls-5" d="M312.75,348.08q-4.38,2-8.81,4.21.62-4.07,1.24-8.13,4.41-2.27,8.78-4.24Q313.35,344,312.75,348.08Z"/><path class="cls-5" d="M303.08,412.62q-4.49,1.86-9,4c.42-2.7.83-5.4,1.25-8.1,3-1.44,6-2.77,9-4Z"/><path class="cls-5" d="M326.56,342.51q-4.32,1.55-8.68,3.35l1.2-8.18q4.35-1.81,8.65-3.38Z"/><path class="cls-5" d="M317.23,407.39c-2.94,1-5.91,2-8.88,3.14.4-2.72.8-5.43,1.21-8.16q4.44-1.71,8.86-3.16C318,401.94,317.63,404.67,317.23,407.39Z"/><path class="cls-5" d="M340.18,338.2c-2.84.78-5.7,1.63-8.56,2.57.39-2.74.77-5.48,1.16-8.21,2.85-.95,5.69-1.81,8.53-2.6Q340.74,334.09,340.18,338.2Z"/><path class="cls-5" d="M331.2,403.42q-4.38,1.06-8.77,2.36.57-4.09,1.16-8.2,4.4-1.31,8.74-2.39C332,397.93,331.58,400.68,331.2,403.42Z"/><path class="cls-5" d="M353.64,335q-4.22.84-8.46,1.86c.37-2.74.74-5.5,1.11-8.25,2.82-.7,5.63-1.32,8.44-1.88Q354.18,330.91,353.64,335Z"/><path class="cls-5" d="M345,400.57q-4.33.72-8.68,1.67.57-4.12,1.12-8.25,4.35-.94,8.65-1.69Q345.54,396.43,345,400.57Z"/><path class="cls-5" d="M367,332.9c-2.78.35-5.58.76-8.38,1.24.36-2.76.71-5.53,1.07-8.29,2.79-.48,5.58-.9,8.35-1.26Q367.5,328.75,367,332.9Z"/><path class="cls-5" d="M358.66,398.71q-4.29.44-8.59,1.06l1.08-8.28c2.86-.42,5.72-.78,8.56-1.08Z"/><path class="cls-5" d="M380.2,331.63q-4.15.27-8.32.71c.34-2.78.69-5.56,1-8.33,2.76-.29,5.53-.53,8.29-.72Q380.69,327.46,380.2,331.63Z"/><path class="cls-5" d="M372.22,397.71q-4.26.19-8.52.54.51-4.17,1-8.32c2.84-.24,5.67-.42,8.5-.56C372.89,392.15,372.56,394.93,372.22,397.71Z"/><path class="cls-5" d="M393.34,331.1q-4.12.06-8.27.26l1-8.36q4.13-.21,8.24-.28Z"/><path class="cls-5" d="M385.7,397.44q-4.23,0-8.48.09c.34-2.78.66-5.56,1-8.35,2.82-.08,5.64-.11,8.45-.11Q386.19,393.26,385.7,397.44Z"/><path class="cls-5" d="M406.43,331.16c-2.74-.06-5.49-.1-8.24-.1.32-2.8.63-5.59.95-8.39,2.74,0,5.47,0,8.21.09C407,325.56,406.74,328.36,406.43,331.16Z"/><path class="cls-5" d="M399.13,397.75q-4.22-.18-8.45-.26c.32-2.79.64-5.59.95-8.38,2.81,0,5.62.13,8.42.23C399.75,392.15,399.44,394.94,399.13,397.75Z"/><path class="cls-5" d="M419.48,331.68c-2.73-.15-5.47-.28-8.21-.37l.9-8.42q4.09.14,8.19.35Q419.92,327.46,419.48,331.68Z"/><path class="cls-5" d="M412.52,398.49q-4.22-.28-8.43-.51c.3-2.81.61-5.61.91-8.41q4.22.21,8.4.49Q413,394.28,412.52,398.49Z"/><path class="cls-5" d="M432.53,332.49c-2.74-.19-5.48-.38-8.21-.54.28-2.82.57-5.63.85-8.45,2.74.16,5.46.34,8.19.52C433.08,326.85,432.81,329.67,432.53,332.49Z"/><path class="cls-5" d="M425.9,399.53q-4.2-.36-8.42-.68l.87-8.44q4.2.3,8.39.65Z"/><path class="cls-5" d="M445.57,333.46l-8.21-.62c.27-2.83.54-5.65.82-8.48l8.18.61Q446,329.22,445.57,333.46Z"/><path class="cls-5" d="M439.29,400.71l-8.43-.76c.27-2.82.55-5.64.82-8.47l8.41.74C439.82,395.05,439.56,397.88,439.29,400.71Z"/><path class="cls-5" d="M458.64,334.43l-8.23-.61.78-8.5q4.1.31,8.2.59Z"/><path class="cls-5" d="M452.7,401.88l-8.45-.73.78-8.5c2.81.25,5.61.49,8.42.72Z"/><path class="cls-5" d="M471.75,335.25c-2.76-.14-5.51-.31-8.26-.49.24-2.84.49-5.68.73-8.52,2.74.17,5.48.34,8.23.48C472.21,329.56,472,332.41,471.75,335.25Z"/><path class="cls-5" d="M466.15,402.9q-4.25-.28-8.47-.62c.24-2.84.49-5.68.73-8.52q4.21.33,8.45.6C466.62,397.21,466.38,400.05,466.15,402.9Z"/><path class="cls-5" d="M484.9,335.79q-4.15-.1-8.29-.29c.23-2.86.46-5.7.69-8.55,2.75.11,5.5.21,8.26.27Z"/><path class="cls-5" d="M479.65,403.61c-2.84-.1-5.67-.24-8.5-.4q.33-4.27.68-8.55c2.83.16,5.65.29,8.48.39Z"/><path class="cls-5" d="M498.11,335.87q-4.17.06-8.33,0c.22-2.86.43-5.72.65-8.57,2.76,0,5.53,0,8.3,0C498.52,330.15,498.32,333,498.11,335.87Z"/><path class="cls-5" d="M493.21,403.87q-4.27,0-8.54-.1c.21-2.86.43-5.71.64-8.57,2.84.06,5.68.1,8.52.09C493.62,398.15,493.42,401,493.21,403.87Z"/><path class="cls-5" d="M511.4,335.36q-4.2.27-8.38.4l.6-8.59c2.78-.1,5.56-.23,8.35-.42Z"/><path class="cls-5" d="M506.85,403.53c-2.87.14-5.73.24-8.6.29.21-2.86.41-5.73.61-8.59,2.85-.06,5.7-.16,8.57-.31Q507.13,399.23,506.85,403.53Z"/><path class="cls-5" d="M524.76,334.1q-4.21.52-8.42.88c.18-2.87.37-5.74.55-8.61q4.18-.36,8.4-.9C525.11,328.35,524.94,331.22,524.76,334.1Z"/><path class="cls-5" d="M520.57,402.43q-4.34.48-8.65.79c.19-2.87.37-5.74.56-8.62,2.86-.21,5.74-.47,8.62-.79Q520.83,398.12,520.57,402.43Z"/><path class="cls-5" d="M538.21,331.94c-2.84.56-5.66,1.05-8.48,1.47l.51-8.63q4.21-.64,8.45-1.48Z"/><path class="cls-5" d="M534.37,400.43q-4.36.78-8.7,1.37l.51-8.63q4.34-.6,8.67-1.39Z"/><path class="cls-5" d="M551.74,328.74q-4.28,1.18-8.53,2.14c.15-2.88.31-5.76.46-8.65q4.25-1,8.51-2.16C552,323,551.89,325.85,551.74,328.74Z"/><path class="cls-5" d="M548.26,397.38q-4.38,1.14-8.76,2.05c.16-2.88.31-5.77.47-8.65q4.35-.91,8.73-2.07C548.55,391.6,548.41,394.49,548.26,397.38Z"/><path class="cls-5" d="M565.36,324.34c-2.86,1.06-5.73,2-8.59,2.92.14-2.89.29-5.78.43-8.67,2.85-.9,5.7-1.87,8.56-2.93Q565.57,320,565.36,324.34Z"/><path class="cls-5" d="M562.24,393.13q-4.41,1.55-8.81,2.82l.42-8.67q4.38-1.29,8.79-2.83C562.5,387.34,562.37,390.24,562.24,393.13Z"/><path class="cls-5" d="M579.08,318.6q-4.33,2-8.65,3.78c.13-2.9.25-5.79.38-8.69q4.31-1.76,8.62-3.79C579.31,312.8,579.2,315.7,579.08,318.6Z"/><path class="cls-5" d="M576.32,387.54q-4.46,2-8.88,3.69.19-4.35.38-8.7,4.41-1.69,8.85-3.69Q576.49,383.19,576.32,387.54Z"/><path class="cls-5" d="M592.88,311.37c-2.9,1.69-5.8,3.26-8.7,4.74l.33-8.71q4.34-2.22,8.68-4.75C593.09,305.56,593,308.47,592.88,311.37Z"/><path class="cls-5" d="M590.48,380.45c-3,1.66-6,3.2-8.93,4.65l.33-8.71q4.46-2.17,8.9-4.66Z"/><path class="cls-5" d="M313.45,351.84a208.59,208.59,0,0,0-22.39,11.48q-3.75,23.65-7.51,47.27a213.47,213.47,0,0,1,22.79-11,4.51,4.51,0,0,0,2.61-3q3.23-21.75,6.44-43.54C315.56,351.81,314.7,351.3,313.45,351.84Z"/><path class="cls-5" d="M379.25,382.56a2.61,2.61,0,0,1-2.43,2.22A205.86,205.86,0,0,0,321.57,394c-1.25.4-2.13-.21-2-1.38q3.15-21.84,6.27-43.72a4.07,4.07,0,0,1,2.53-2.89,198.08,198.08,0,0,1,54.24-10.1,1.76,1.76,0,0,1,1.88,2.05Q381.91,360.26,379.25,382.56Z"/><path class="cls-5" d="M447.62,386.08a2.21,2.21,0,0,1-2.36,2c-18-1.55-35.89-3.25-53.92-3.47a1.92,1.92,0,0,1-1.92-2.19q2.55-22.35,5.1-44.71a2.48,2.48,0,0,1,2.38-2.17c17.69,0,35.26,1.46,52.91,2.81a2.12,2.12,0,0,1,1.92,2.35Q449.69,363.41,447.62,386.08Z"/><path class="cls-5" d="M516.7,387.46a2.65,2.65,0,0,1-2.36,2.41c-18.4,1.5-36.57.75-54.61-.6a2.17,2.17,0,0,1-2-2.36q2-22.74,3.94-45.47a2.22,2.22,0,0,1,2.32-2.06c17.7,1.16,35.52,1.74,53.57.08a1.82,1.82,0,0,1,2,2Z"/><path class="cls-5" d="M587.88,366.54A4.65,4.65,0,0,1,585.5,370a180.48,180.48,0,0,1-56.31,18.16,1.75,1.75,0,0,1-2.1-1.9l2.73-46.08a2.88,2.88,0,0,1,2.31-2.57A176.06,176.06,0,0,0,587.38,319c1.24-.67,2.21-.22,2.17,1Q588.71,343.28,587.88,366.54Z"/><path class="cls-42" d="M293.41,348.45q-1.86,11.81-3.73,23.59-2.34,14.77-4.69,29.52l-3.81,23.86C390.72,362.89,484.5,443.5,594,381q1.4-41.56,2.78-83.13C490.62,361.7,399.85,282.43,293.41,348.45Z"/><path class="cls-4" d="M553.13,482l18.54-78.1C493,315.72,372.14,437.83,293.48,349.65l-12.42,76.12C358,513.22,476.23,394.55,553.13,482Z"/><path class="cls-5" d="M553.72,479.51q1-4.11,1.94-8.2c-1.66-1.88-3.34-3.68-5-5.37-.64,2.73-1.29,5.46-1.93,8.2C550.38,475.84,552.06,477.62,553.72,479.51Z"/><path class="cls-5" d="M569.13,414.57l2-8.19c-1.69-1.9-3.41-3.7-5.14-5.41-.64,2.73-1.28,5.47-1.93,8.2Q566.61,411.74,569.13,414.57Z"/><path class="cls-5" d="M540,456.65q3.4,2.6,6.74,5.59c-.64,2.74-1.28,5.47-1.93,8.21q-3.31-3-6.72-5.59C538.72,462.12,539.36,459.39,540,456.65Z"/><path class="cls-5" d="M555.12,391.64q3.48,2.6,6.87,5.61c-.64,2.74-1.28,5.47-1.93,8.21q-3.37-3-6.85-5.61C553.84,397.11,554.48,394.38,555.12,391.64Z"/><path class="cls-5" d="M529,449.45c2.36,1.31,4.69,2.74,7,4.31-.63,2.73-1.26,5.47-1.9,8.2q-3.45-2.34-7-4.3C527.7,454.92,528.32,452.19,529,449.45Z"/><path class="cls-5" d="M543.86,384.43c2.41,1.31,4.79,2.74,7.14,4.31-.63,2.73-1.27,5.47-1.9,8.2q-3.52-2.34-7.12-4.3C542.61,389.9,543.24,387.17,543.86,384.43Z"/><path class="cls-5" d="M517.53,444.12q3.65,1.41,7.23,3.15c-.62,2.74-1.24,5.47-1.87,8.21-2.38-1.17-4.79-2.22-7.21-3.16Q516.6,448.23,517.53,444.12Z"/><path class="cls-5" d="M532.23,379.13q3.72,1.39,7.37,3.13c-.62,2.73-1.25,5.47-1.87,8.2q-3.65-1.74-7.36-3.13Z"/><path class="cls-5" d="M505.78,440.45q3.75.92,7.43,2.13c-.61,2.73-1.23,5.47-1.84,8.2-2.45-.81-4.93-1.52-7.42-2.13Z"/><path class="cls-5" d="M520.26,375.51c2.54.6,5.07,1.29,7.57,2.09-.61,2.74-1.23,5.47-1.84,8.2-2.5-.8-5-1.49-7.56-2.09Z"/><path class="cls-5" d="M493.73,438.23q3.84.5,7.62,1.24-.92,4.09-1.82,8.19-3.78-.75-7.6-1.24Z"/><path class="cls-5" d="M508,373.37c2.6.31,5.19.7,7.75,1.18-.6,2.74-1.21,5.47-1.81,8.2-2.56-.49-5.15-.88-7.74-1.2C506.79,378.83,507.38,376.1,508,373.37Z"/><path class="cls-5" d="M481.44,437.25q3.9.13,7.76.49c-.59,2.72-1.19,5.45-1.78,8.18-2.57-.24-5.16-.4-7.75-.49C480.25,442.7,480.85,440,481.44,437.25Z"/><path class="cls-5" d="M495.46,372.48q4,.11,7.91.42c-.59,2.73-1.19,5.46-1.78,8.19q-3.93-.33-7.9-.43Z"/><path class="cls-5" d="M468.93,437.3q4-.15,7.9-.14-.88,4.09-1.76,8.17-3.92,0-7.88.13Z"/><path class="cls-5" d="M482.73,372.65q4-.19,8-.22c-.59,2.73-1.18,5.45-1.76,8.18-2.66,0-5.34.08-8,.2Z"/><path class="cls-5" d="M456.27,438.17c2.67-.25,5.34-.47,8-.63-.58,2.72-1.15,5.44-1.73,8.16q-4,.24-8,.62Z"/><path class="cls-5" d="M469.83,373.65q4.08-.43,8.14-.72-.87,4.08-1.73,8.16-4,.29-8.12.7Z"/><path class="cls-5" d="M443.48,439.65q4-.54,8.06-1c-.56,2.71-1.13,5.43-1.7,8.14q-4,.43-8,1Z"/><path class="cls-5" d="M456.8,375.26q4.13-.58,8.22-1.08-.86,4.08-1.7,8.14-4.1.48-8.2,1.07Z"/><path class="cls-5" d="M430.61,441.52c2.71-.42,5.41-.83,8.11-1.21q-.83,4.05-1.67,8.12-4,.57-8.09,1.2Z"/><path class="cls-5" d="M443.69,377.28q4.14-.67,8.27-1.31-.84,4.06-1.67,8.12-4.12.63-8.25,1.3C442.6,382.69,443.15,380,443.69,377.28Z"/><path class="cls-5" d="M417.71,443.58l8.13-1.31c-.55,2.71-1.1,5.4-1.64,8.11-2.71.42-5.41.86-8.11,1.29Z"/><path class="cls-5" d="M430.55,379.49l8.28-1.4c-.55,2.7-1.09,5.4-1.64,8.1l-8.26,1.39Z"/><path class="cls-5" d="M404.81,445.62l8.12-1.27c-.54,2.69-1.08,5.39-1.61,8.08l-8.1,1.26Z"/><path class="cls-5" d="M417.42,381.67c2.75-.44,5.51-.9,8.26-1.36-.53,2.69-1.07,5.39-1.61,8.08q-4.12.69-8.25,1.35Q416.62,385.71,417.42,381.67Z"/><path class="cls-5" d="M392,447.42q4-.51,8.08-1.1c-.53,2.69-1.05,5.38-1.58,8.07-2.69.38-5.38.75-8.07,1.08C390.91,452.78,391.44,450.1,392,447.42Z"/><path class="cls-5" d="M404.32,383.61q4.11-.56,8.24-1.18c-.53,2.69-1.06,5.37-1.58,8.06q-4.12.63-8.22,1.18Z"/><path class="cls-5" d="M379.19,448.77c2.67-.22,5.34-.49,8-.79-.52,2.68-1,5.37-1.55,8-2.68.29-5.35.56-8,.78Z"/><path class="cls-5" d="M391.32,385.1c2.72-.25,5.44-.54,8.18-.87q-.78,4-1.55,8-4.09.5-8.16.87Z"/><path class="cls-5" d="M366.56,449.47c2.64-.07,5.28-.19,7.94-.36q-.76,4-1.52,8-4,.25-7.92.35Z"/><path class="cls-5" d="M378.46,385.92c2.68-.08,5.38-.23,8.08-.42-.51,2.67-1,5.35-1.52,8q-4,.29-8.06.41Z"/><path class="cls-5" d="M354.1,449.29c2.6.15,5.2.22,7.82.23q-.74,4-1.49,8c-2.61,0-5.21-.08-7.8-.23Z"/><path class="cls-5" d="M365.77,385.86q4,.18,8,.16-.75,4-1.49,8-4,0-7.95-.16Z"/><path class="cls-5" d="M341.86,448.05c2.55.39,5.11.69,7.68.92-.48,2.67-1,5.33-1.46,8q-3.85-.35-7.66-.93Z"/><path class="cls-5" d="M353.3,384.71q3.88.56,7.82.86-.72,4-1.46,8-3.93-.31-7.8-.88Z"/><path class="cls-5" d="M329.88,445.51c2.49.68,5,1.26,7.51,1.76-.47,2.66-.95,5.33-1.43,8-2.52-.5-5-1.08-7.5-1.77Q329.18,449.5,329.88,445.51Z"/><path class="cls-5" d="M341.1,382.24q3.79,1,7.65,1.72l-1.44,8q-3.84-.72-7.63-1.72C340.15,387.57,340.62,384.9,341.1,382.24Z"/><path class="cls-5" d="M318.2,441.47q3.63,1.53,7.32,2.73l-1.41,8c-2.45-.8-4.89-1.71-7.3-2.73Q317.52,445.46,318.2,441.47Z"/><path class="cls-5" d="M329.2,378.25q3.69,1.51,7.45,2.7-.7,4-1.4,8-3.76-1.2-7.44-2.71Q328.5,382.24,329.2,378.25Z"/><path class="cls-5" d="M306.86,435.73c2.34,1.39,4.71,2.67,7.1,3.82l-1.38,8q-3.57-1.72-7.08-3.83Q306.19,439.71,306.86,435.73Z"/><path class="cls-5" d="M317.65,372.52q3.57,2.1,7.23,3.82l-1.38,8c-2.43-1.15-4.84-2.42-7.21-3.82Q317,376.51,317.65,372.52Z"/><path class="cls-5" d="M295.91,428.06c2.26,1.82,4.54,3.5,6.85,5.06l-1.35,8c-2.31-1.56-4.58-3.24-6.83-5.07C295,433.38,295.47,430.71,295.91,428.06Z"/><path class="cls-5" d="M306.49,364.84q3.43,2.75,7,5.07-.68,4-1.36,8-3.51-2.33-7-5.07C305.6,370.16,306,367.5,306.49,364.84Z"/><path class="cls-5" d="M285.39,418.25q3.24,3.45,6.57,6.44l-1.32,8q-3.33-3-6.56-6.43Q284.73,422.25,285.39,418.25Z"/><path class="cls-5" d="M295.77,355q3.3,3.47,6.69,6.47l-1.32,8q-3.39-3-6.68-6.46Q295.11,359,295.77,355Z"/><path class="cls-5" d="M540,451.48a105.77,105.77,0,0,1,16.75,15.45q5.68-24,11.38-48a106.41,106.41,0,0,0-17-15.51,1.36,1.36,0,0,0-2.29.84q-5.07,21.9-10.15,43.8A3.57,3.57,0,0,0,540,451.48Z"/><path class="cls-5" d="M487.38,387.08a2.71,2.71,0,0,1,2.51-2.1c17,.15,33.54,3,49,11a2.91,2.91,0,0,1,1.38,3.09q-5,21.9-10,43.8a1.55,1.55,0,0,1-2.32,1.13c-15.27-7.95-31.54-10.89-48.36-11.15a1.64,1.64,0,0,1-1.57-2.12Z"/><path class="cls-5" d="M420.86,395.12a3.32,3.32,0,0,1,2.54-2.43c17.66-2.95,35.38-6.16,52.68-7.29a1.52,1.52,0,0,1,1.63,2q-4.63,21.76-9.27,43.54a2.89,2.89,0,0,1-2.49,2.21c-17.07,1-34.55,4.07-52,6.86a1.38,1.38,0,0,1-1.69-1.75Q416.58,416.69,420.86,395.12Z"/><path class="cls-5" d="M355.06,399.59a2.29,2.29,0,0,1,2.39-1.86c16.76,1.55,34.18-.17,51.78-2.79a1.41,1.41,0,0,1,1.71,1.76q-4.23,21.53-8.45,43.05a3.19,3.19,0,0,1-2.5,2.39c-17.36,2.47-34.54,4.06-51.08,2.42a1.87,1.87,0,0,1-1.61-2.28Q351.18,420.94,355.06,399.59Z"/><path class="cls-5" d="M295.76,371.69c.19-1.13,1.1-1.29,2.06-.39a93.68,93.68,0,0,0,46.31,24.44,2.12,2.12,0,0,1,1.6,2.46q-3.83,21.33-7.64,42.65a2,2,0,0,1-2.32,1.65A93.25,93.25,0,0,1,290.09,418a4.76,4.76,0,0,1-1.35-3.72Z"/><path class="cls-43" d="M571.08,406.38h0c-.27,1.12-.53,2.25-.8,3.38q-3.94,16.59-7.88,33.18-2.85,12-5.69,24h0l-1.05,4.38h0l-1.23,5.2c-.43,1.83-.87,3.65-1.3,5.48-76.9-87.44-195.18,31.23-272.07-56.22l12.42-76.12c78.66,88.18,199.54-33.93,278.19,54.24C571.47,404.72,571.28,405.55,571.08,406.38Z"/></g></g></g></svg>